<?xml version="1.0" standalone="no"?><!DOCTYPE svg PUBLIC "-//W3C//DTD SVG 1.1//EN" "http://www.w3.org/Graphics/SVG/1.1/DTD/svg11.dtd"><svg t="1591795142637" class="icon" viewBox="0 0 1024 1024" version="1.1" xmlns="http://www.w3.org/2000/svg" p-id="1112" xmlns:xlink="http://www.w3.org/1999/xlink" width="200" height="200"><defs><style type="text/css"></style></defs><path d="M127.99999999 512c0-51.86370401 10.145185-102.115556 30.15111101-149.428148 19.342222-45.70074101 47.028148-86.755556 82.299259-122.026667 35.271111-35.271111 76.325926-62.957037 122.026667-82.299259 47.407407-20.100741 97.659259-30.245926 149.522963-30.24592601s102.115556 10.145185 149.428148 30.15111101c45.70074101 19.342222 86.755556 47.028148 122.026667 82.299259 35.271111 35.271111 62.957037 76.325926 82.299259 122.026667 20.100741 47.407407 30.245926 97.659259 30.24592601 149.522963s-10.145185 102.115556-30.15111101 149.428148c-19.342222 45.70074101-47.028148 86.755556-82.299259 122.026667-35.271111 35.271111-76.325926 62.957037-122.026667 82.299259-47.407407 20.100741-97.659259 30.245926-149.522963 30.24592601s-102.115556-10.145185-149.428148-30.15111101c-45.70074101-19.342222-86.755556-47.028148-122.026667-82.299259-35.271111-35.271111-62.957037-76.325926-82.299259-122.026667-20.100741-47.407407-30.245926-97.659259-30.24592601-149.522963m-42.66666699 0C85.333333 747.614815 276.385185 938.666667 512 938.666667s426.666667-191.051852 426.666667-426.666667-191.051852-426.666667-426.666667-426.666667S85.333333 276.385185 85.333333 512z" p-id="1113"></path><path d="M632.888889 312.888889c0 5.499259-2.085926 10.903704-6.257778 15.075555L442.595556 512 626.631111 696.035556c8.343704 8.343704 8.343704 21.807407 0 30.151111s-21.807407 8.343704-30.151111 0l-199.111111-199.111111c-8.343704-8.343704-8.343704-21.807407 0-30.151112l0.284444-0.284444 198.826667-198.826667c8.343704-8.343704 21.807407-8.343704 30.151111 0 4.171852 4.171852 6.257778 9.576296 6.257778 15.075556z" p-id="1114"></path></svg>