<?xml version="1.0" standalone="no"?><!DOCTYPE svg PUBLIC "-//W3C//DTD SVG 1.1//EN" "http://www.w3.org/Graphics/SVG/1.1/DTD/svg11.dtd"><svg t="1591795136520" class="icon" viewBox="0 0 1024 1024" version="1.1" xmlns="http://www.w3.org/2000/svg" p-id="988" xmlns:xlink="http://www.w3.org/1999/xlink" width="200" height="200"><defs><style type="text/css"></style></defs><path d="M896.00000001 512c0 51.86370401-10.145185 102.115556-30.15111101 149.428148-19.342222 45.70074101-47.028148 86.755556-82.299259 122.026667-35.271111 35.271111-76.325926 62.957037-122.026667 82.299259-47.407407 20.100741-97.659259 30.245926-149.522963 30.24592601s-102.115556-10.145185-149.428148-30.15111101c-45.70074101-19.342222-86.755556-47.028148-122.026667-82.299259-35.271111-35.271111-62.957037-76.325926-82.299259-122.026667-20.100741-47.407407-30.245926-97.659259-30.24592601-149.522963s10.145185-102.115556 30.15111101-149.428148c19.342222-45.70074101 47.028148-86.755556 82.299259-122.026667 35.271111-35.271111 76.325926-62.957037 122.026667-82.299259 47.407407-20.100741 97.659259-30.245926 149.522963-30.24592601s102.115556 10.145185 149.428148 30.15111101c45.70074101 19.342222 86.755556 47.028148 122.026667 82.299259 35.271111 35.271111 62.957037 76.325926 82.299259 122.026667 20.100741 47.407407 30.245926 97.659259 30.24592601 149.522963m42.66666699 0C938.666667 276.385185 747.614815 85.333333 512 85.333333s-426.666667 191.051852-426.666667 426.666667 191.051852 426.666667 426.666667 426.666667S938.666667 747.614815 938.666667 512z" p-id="989"></path><path d="M391.111111 711.111111c0-5.499259 2.085926-10.903704 6.257778-15.075555L581.404444 512 397.368889 327.964444c-8.343704-8.343704-8.343704-21.807407 0-30.151111s21.807407-8.343704 30.151111 0l199.111111 199.111111c8.343704 8.343704 8.343704 21.807407 0 30.151112l-0.284444 0.284444-198.826667 198.826667c-8.343704 8.343704-21.807407 8.343704-30.151111 0-4.171852-4.171852-6.257778-9.576296-6.257778-15.075556z" p-id="990"></path></svg>